<svg xmlns="http://www.w3.org/2000/svg" width="200" height="200" viewBox="0 0 200 200">
	<style type="text/css">
		.st0{stroke:#010101;fill:none;stroke-width:8;stroke-linecap:round;}
	</style>
	<path class="st0" d="M7.87,72.9C5.35,81.49 4,90.59 4,100C4,110.61 5.72,120.82 8.9,130.37"/>
	<path class="st0" d="M98.92,4C61.41,4.41 29.06,26.34 13.64,58.02"/>
	<path class="st0" d="M196,97.25C194.69,50.54 159.95,12.15 114.87,5.14"/>
	<path class="st0" d="M94.33,181.98C92.42,187.28 90.49,191.8 88.84,195.34"/>
	<path class="st0" d="M100,100C100,100 106.26,125.33 101.6,154.17C100.89,158.52 100.01,162.68 99.02,166.63"/>
	<path class="st0" d="M118.35,148.71C118.14,150.52 117.89,152.35 117.6,154.17C114.69,172.13 109.58,187.3 106.14,195.99"/>
	<path class="st0" d="M72.33,191.93C76.85,183.05 82.39,169.81 85.08,154.26C89.07,131.27 85.62,110.28 84.24,102.82C84.08,101.91 83.99,100.96 83.99,99.99C83.99,91.16 91.16,83.99 99.99,83.99C107.58,83.99 113.93,89.27 115.58,96.36C115.58,96.36 119.31,112.54 119.25,132.74"/>
	<path class="st0" d="M182.83,128.75C182.94,135.12 182.86,142 182.46,149.18"/>
	<path class="st0" d="M68.61,26.38C78.25,22.27 88.86,19.99 100,19.99C140.39,19.99 173.9,50.1 179.33,88.99C179.33,88.99 181.06,98.28 182.1,112.73"/>
	<path class="st0" d="M19.7,152.62C20.66,150.18 21.49,147.59 22.12,144.87C24.43,134.94 22.5,120.93 21.1,113.33C20.37,108.99 20,104.54 20,99.99C20,72.63 33.74,48.47 54.69,34.05"/>
	<path class="st0" d="M115.92,37.99C110.83,36.69 105.49,36 99.99,36C64.65,36 35.99,64.65 35.99,100C35.99,103.31 36.25,106.57 36.74,109.75C38.26,118.11 40.24,132.3 37.6,146.67C36.21,154.24 33.68,161.01 30.9,166.7"/>
	<path class="st0" d="M163.8,171.68C164.37,168.36 164.89,164.92 165.33,161.4C170,124.46 163.27,90.35 163.27,90.35C160.24,70.27 147.87,53.25 130.73,43.85"/>
	<path class="st0" d="M145.51,84.73C146.12,86.55 146.63,88.41 147.02,90.32C148.89,100.09 152.89,124.31 150.26,151.16C149,164.05 146.63,175.69 144.14,185.25"/>
	<path class="st0" d="M54.33,142.01C56.3,123.75 52.91,109.38 52.91,109.38C52.31,106.34 52,103.21 52,99.99C52,73.49 73.49,51.99 100,51.99C115.4,51.99 129.11,59.25 137.89,70.53"/>
	<path class="st0" d="M43.4,177.62C46.29,172.02 49.18,165.28 51.3,157.76"/>
	<path class="st0" d="M88.98,69.94C92.42,68.68 96.12,68 100,68C115.44,68 128.34,78.85 131.34,93.41C133.05,101.6 137.13,125.14 134.22,151.46C132.37,168.16 128.39,182.62 124.94,192.77"/>
	<path class="st0" d="M57.44,186.09C62.19,177.01 67.12,165.12 69.19,151.99C72.32,132.2 69.97,114.48 68.5,105.74C68.14,103.83 68,102.01 68,99.99C68,91.92 70.99,84.54 75.93,78.9"/>
</svg>